<svg width="50" height="50" viewBox="0 0 50 50" fill="none" xmlns="http://www.w3.org/2000/svg">
<g clip-path="url(#clip0_51_810)">
<path d="M29.4167 8.33329L33.2292 12.5H41.6668V37.5H8.33342V12.5H16.7709L20.5834 8.33329H29.4167ZM31.2501 4.16663H18.7501L14.9376 8.33329H8.33342C6.04175 8.33329 4.16675 10.2083 4.16675 12.5V37.5C4.16675 39.7916 6.04175 41.6666 8.33342 41.6666H41.6668C43.9584 41.6666 45.8334 39.7916 45.8334 37.5V12.5C45.8334 10.2083 43.9584 8.33329 41.6668 8.33329H35.0626L31.2501 4.16663ZM25.0001 18.75C28.4376 18.75 31.2501 21.5625 31.2501 25C31.2501 28.4375 28.4376 31.25 25.0001 31.25C21.5626 31.25 18.7501 28.4375 18.7501 25C18.7501 21.5625 21.5626 18.75 25.0001 18.75ZM25.0001 14.5833C19.2501 14.5833 14.5834 19.25 14.5834 25C14.5834 30.75 19.2501 35.4166 25.0001 35.4166C30.7501 35.4166 35.4167 30.75 35.4167 25C35.4167 19.25 30.7501 14.5833 25.0001 14.5833Z" fill="white"/>
</g>
<defs>
<clipPath id="clip0_51_810">
<rect width="50" height="50" fill="white"/>
</clipPath>
</defs>
</svg>
