<svg width="12" height="12" viewBox="0 0 12 12" fill="none" xmlns="http://www.w3.org/2000/svg">
<path d="M11.7338 0.275307C11.3788 -0.079634 10.8055 -0.079634 10.4505 0.275307L6 4.71662L1.54949 0.266206C1.19454 -0.0887352 0.62116 -0.0887352 0.266212 0.266206C-0.0887372 0.621147 -0.0887372 1.19451 0.266212 1.54945L4.71672 5.99987L0.266212 10.4503C-0.0887372 10.8052 -0.0887372 11.3786 0.266212 11.7335C0.62116 12.0885 1.19454 12.0885 1.54949 11.7335L6 7.28311L10.4505 11.7335C10.8055 12.0885 11.3788 12.0885 11.7338 11.7335C12.0887 11.3786 12.0887 10.8052 11.7338 10.4503L7.28328 5.99987L11.7338 1.54945C12.0796 1.20361 12.0796 0.621147 11.7338 0.275307Z" fill="#808080"/>
</svg>
