<svg width="34" height="34" viewBox="0 0 34 34" fill="none" xmlns="http://www.w3.org/2000/svg">
<path d="M11.3722 27.1766C11.3722 27.3137 11.2145 27.4234 11.0157 27.4234C10.7895 27.444 10.6319 27.3343 10.6319 27.1766C10.6319 27.0395 10.7895 26.9299 10.9883 26.9299C11.194 26.9093 11.3722 27.019 11.3722 27.1766ZM9.24032 26.8682C9.19234 27.0053 9.32944 27.1629 9.53508 27.2041C9.71331 27.2726 9.91895 27.2041 9.96008 27.067C10.0012 26.9299 9.87097 26.7722 9.66532 26.7105C9.4871 26.6625 9.28831 26.7311 9.24032 26.8682ZM12.2702 26.7516C12.0714 26.7996 11.9343 26.9299 11.9548 27.0875C11.9754 27.2246 12.1536 27.3137 12.3593 27.2658C12.5581 27.2178 12.6952 27.0875 12.6746 26.9504C12.654 26.8202 12.469 26.7311 12.2702 26.7516ZM16.7806 0.483887C7.27298 0.483887 0 7.70204 0 17.2097C0 24.8117 4.78468 31.317 11.619 33.6065C12.4964 33.7642 12.8048 33.2226 12.8048 32.7771C12.8048 32.3521 12.7843 30.0077 12.7843 28.5682C12.7843 28.5682 7.98589 29.5964 6.97823 26.5254C6.97823 26.5254 6.19677 24.5307 5.07258 24.0166C5.07258 24.0166 3.50282 22.9404 5.18226 22.9609C5.18226 22.9609 6.88911 23.098 7.82823 24.7295C9.32944 27.3754 11.8452 26.6145 12.8254 26.1621C12.9831 25.0654 13.4286 24.3045 13.9222 23.852C10.0903 23.427 6.22419 22.8718 6.22419 16.2774C6.22419 14.3924 6.74516 13.4464 7.84194 12.2399C7.66371 11.7944 7.08105 9.95728 8.02016 7.5855C9.45282 7.13994 12.75 9.43631 12.75 9.43631C14.121 9.05244 15.5948 8.85365 17.0548 8.85365C18.5149 8.85365 19.9887 9.05244 21.3597 9.43631C21.3597 9.43631 24.6569 7.13308 26.0895 7.5855C27.0286 9.96414 26.446 11.7944 26.2677 12.2399C27.3645 13.4532 28.0363 14.3992 28.0363 16.2774C28.0363 22.8924 23.9988 23.4202 20.1669 23.852C20.7976 24.3936 21.3323 25.4218 21.3323 27.0327C21.3323 29.3428 21.3117 32.2012 21.3117 32.7633C21.3117 33.2089 21.627 33.7504 22.4976 33.5928C29.3524 31.317 34 24.8117 34 17.2097C34 7.70204 26.2883 0.483887 16.7806 0.483887ZM6.6629 24.1262C6.57379 24.1948 6.59436 24.3525 6.71089 24.4827C6.82056 24.5924 6.97823 24.6404 7.06734 24.5512C7.15645 24.4827 7.13589 24.325 7.01936 24.1948C6.90968 24.0851 6.75202 24.0371 6.6629 24.1262ZM5.92258 23.571C5.8746 23.6601 5.94315 23.7698 6.08024 23.8383C6.18992 23.9069 6.32702 23.8863 6.375 23.7904C6.42298 23.7012 6.35444 23.5916 6.21734 23.523C6.08024 23.4819 5.97056 23.5024 5.92258 23.571ZM8.14355 26.0113C8.03387 26.1004 8.075 26.3061 8.23266 26.4363C8.39032 26.594 8.58911 26.6145 8.67823 26.5049C8.76734 26.4158 8.72621 26.2101 8.58911 26.0799C8.43831 25.9222 8.23266 25.9016 8.14355 26.0113ZM7.3621 25.0037C7.25242 25.0722 7.25242 25.2504 7.3621 25.4081C7.47177 25.5658 7.65686 25.6343 7.74597 25.5658C7.85565 25.4766 7.85565 25.2984 7.74597 25.1408C7.65 24.9831 7.47177 24.9145 7.3621 25.0037Z" fill="#242E63"/>
</svg>
