<svg width="46" height="30" viewBox="0 0 46 30" fill="none" xmlns="http://www.w3.org/2000/svg">
<path d="M1.39216 3.07692L1 1.46153L2.17647 1.53845L3.19608 1.92307L4.52941 1.46153H5.79467L6.01961 2.6923L5.79467 3.92307V5.15384L6.2549 6.23076L6.4902 7.16978L6.2549 8.46153V9.92307L7.03922 11.2308L6.80392 12.5385L7.5098 13.7692L7.27451 15.0769L7.66667 16.2308L7.27451 17.4615V18.8461L8.13725 20V22L9 19.4615L10.0196 18.3846L9.47059 16.8461L10.3333 15.8461V14.3077L10.7255 13.0769L10.3333 11.8461L10.7255 10.3846L10.4902 8.92307L11.3529 7.76922L11.5882 6.46153L11.3529 5.15384L12.0588 3.92307L11.3529 2.6923L11.8546 1.46153L12.7647 1.92307L13.6274 2.15384L14.3333 1.6923L15.4314 1.92307L16.3725 1.6923L17 1.15384L17.9412 1.6923L18.98 1.46153L19.2745 2.6923L18.98 3.92307L19.2745 5.38461L20.1373 6.46153L19.3529 7.46153L20.1373 8.6923L19.9804 9.92307L20.1373 11.2308L19.9804 12.5385L20.451 13.5385L20.8431 15.0769L20.451 16.2308L21.2353 17.7692L21 19.4615L21.2353 20.6923L21.9412 21.7692L22.4118 20.1538V18.8461L22.7255 17.6154V16.2308L23.2745 15.0769L22.9608 13.5385V12.3077L23.7451 11.4615L23.2745 10.1538L23.8235 8.92307L23.3529 7.53845L23.7451 5.99999L24.3725 5.30768L24.2157 3.92307L24.3725 2.99999L25.04 1.46153H26.098L27.0392 1.92307L27.9804 1.46153H29.2353L28.9216 3.38461L27.9804 4.84615L27.8235 5.99999L27.3529 7.16978L27.6667 7.76922L27.0392 8.92307L27.3529 9.76922L26.6471 11.4615V12.5385L27.0392 13.5385L26.3333 14.4615V15.1538L25.7843 16.9231L26.1765 18.4615L25.3922 20.1538V22L25.6274 23.6923L25.04 24.3846L24.8431 25.4615L25.3922 26.4615V27.2308L25.04 29H23.3529L21.9412 28.1538L20.5294 29H18.98L18.4902 27.6923L18.98 26.2308L17.8627 24.9231L18.0196 23.6923L17.6274 22.2308L17.8627 20.8461L17.4706 19.4615L17.6274 18L17 16.4615V15.0769L16.2157 14L16.3725 12.5385L15.8235 11.2308L16.3725 9.76922L15.6504 8.6923V7.16978L14.5 8.6923L14.7876 10.1538L13.8785 11.2308L14.3333 12.6923L14.0196 14L14.3333 15.3077L13.6274 16.4615V18L13 19.4615V20.8461L13.3137 22.3846L12.7647 23.6923V24.9231L11.8546 26.2308L12.2157 27.6923L11.8546 29L10.0196 29L8.68627 28.3846L7.11765 29L5.79467 29L5.15686 27.1538V25.3846L4.45098 23.6923L4.52941 21.7692L4.45098 20.2308L3.58824 18.6923V16.8461L3.19608 15.3077V13.4615L2.33333 11.8461V10.1538L2.09804 8.46153V6.46153L1.39216 4.84615V3.07692Z" fill="#242E63" stroke="#242E63"/>
<path d="M32.6863 1.46154L34.4902 1L35.8235 2.07692H37.6274L39.1961 1.46154L41.0784 1.76923L42.8823 1L44.5294 1.76923V2.69231L45 3.61538L44.5294 5.38461L43.4314 5.07692L42.3333 5.53846L40.1372 5.07692L37.9412 5.53846L36.8431 5.07692L35.8235 5.38461L35.2745 6.46154L35.9804 7.46154L35.2745 8.46154L35.5882 9.53846L35.2745 10.7692L35.9804 11.6923L35.5882 12.5385L35.8235 13.6923L36.8431 14L37.9412 13.6923L38.647 14L39.9019 13.6923H41.3137L42.098 13.2308L43.4314 13.6923L45 13.5385L44.7647 14.6923L44.2941 15.3846L45 16.5385L44.7647 17.5385L43.1176 17.3077L41.8627 17.5385L41.0784 17.8462L39.9019 17.5385L38.647 17.8462L37.9412 17.0769L36.8431 17.5385H35.8235L35.5882 19.2308L36.2157 20.6923L35.2745 22.3077L35.8235 23.2308V24.3846L36.8431 24L37.9412 24.3846L39.9019 24L41.3137 24.3846L42.4117 23.6154L43.4314 24.3846H44.5294L44.2941 25.5385L45 26.6154V27.8461L44.5294 28.9231L42.8039 28.7692L41.0784 28.9231L39.5882 28.3077L38.647 28.5385L37.6274 28.3077L35.9804 28.9231L34.098 28.5385L32.5294 28.9231H31.6666H30.8039L30.5686 28L31.1176 27.0769L30.8039 26.2308L31.1176 25.3077L30.2549 24L30.4117 23.0385L30.8039 22.3077V21.0769L31.4314 20.1538L30.8039 19.2308L31.2745 18.3846L30.8039 17.0769L31.5098 16.4615L30.8039 15.0769V14L31.2745 13.2308V11.6923L30.5686 10.7692V9.92308L31.2745 9.15384V8.15384L31.0392 7.30769V6.30769L31.4314 5.53846V4.69231L31.0392 3.92308L31.2745 3.07692L30.8039 1.46154H32.6863Z" fill="white" stroke="#242E63"/>
</svg>
