<svg width="32" height="33" viewBox="0 0 32 33" fill="none" xmlns="http://www.w3.org/2000/svg">
<path d="M17.6622 0.107765C16.7712 0.173763 12.6132 0.503765 8.45524 0.833765C1.88824 1.32876 0.865243 1.49376 0.469243 2.02176C0.106243 2.51676 0.0072428 4.85976 0.0072428 13.5388C0.0072428 26.0128 -0.322757 24.4618 3.47224 29.3788C4.69324 30.9628 6.04624 32.4148 6.44224 32.6128C7.16824 32.9428 29.4432 31.7548 30.5652 31.3258C30.8292 31.2268 31.2252 30.7648 31.3902 30.3358C31.5552 29.9068 31.6872 24.2968 31.6872 17.8618V6.17976L30.3012 5.05776C29.5092 4.46376 27.6282 3.07776 26.0772 2.02176C23.4702 0.206764 23.1732 0.0747643 21.2922 0.00876236C20.2032 -0.0242348 18.5862 0.0417633 17.6622 0.107765ZM23.9652 2.71476C26.5062 4.43076 27.1002 4.89277 26.9682 5.05776C26.8692 5.12376 22.3152 5.48676 16.8042 5.81676C5.84824 6.50976 6.34324 6.54276 3.96724 4.52976C3.34024 4.00176 2.94424 3.44076 3.07624 3.27576C3.37324 2.97876 15.7152 1.98876 20.0052 1.88976C22.3812 1.85676 22.8102 1.95576 23.9652 2.71476ZM29.3112 18.0598C29.3772 26.2108 29.2782 28.5868 28.9812 28.8508C28.4862 29.2468 8.02624 30.4678 7.16824 30.1378C6.64024 29.9398 6.60724 29.0158 6.60724 19.5448C6.60724 11.5918 6.70624 9.08377 7.00324 8.88577C7.49824 8.58876 23.5692 7.53276 26.9022 7.59876L29.2122 7.63176L29.3112 18.0598Z" fill="#242E63"/>
<path d="M21.1932 11.4928C20.5992 12.0868 20.6982 12.3178 21.6222 12.5488L22.4472 12.7468V17.1358V21.4918L19.1142 16.4098C15.8472 11.4268 15.7812 11.3608 14.7912 11.5588C14.2302 11.6578 13.1412 11.7568 12.3492 11.7568C11.5242 11.7568 10.7322 11.9548 10.4352 12.2848C9.80824 12.9118 10.0392 13.4068 10.9302 13.4068C11.5242 13.4068 11.5572 13.7038 11.5572 19.8418C11.5572 25.0888 11.4582 26.2768 11.0952 26.2768C10.8642 26.2768 10.4352 26.5078 10.2042 26.8048C9.80824 27.2998 10.0392 27.3328 12.6462 27.2338C14.7582 27.1348 15.6162 26.9698 15.8472 26.6068C16.0782 26.2108 15.9462 26.0458 15.1872 25.8148L14.1972 25.5178V20.8648C14.1972 16.8718 14.2632 16.3108 14.6262 16.8718C14.8902 17.2348 16.3752 19.5778 17.9592 22.0858C19.5762 24.5608 21.1602 26.7718 21.4902 26.9698C21.9192 27.2008 22.5462 27.1678 23.4372 26.9368L24.7572 26.5738V19.4788C24.7572 12.6478 24.7902 12.3508 25.4172 12.1858C25.7802 12.0868 26.0772 11.7898 26.0772 11.5588C26.0772 10.9648 21.7872 10.8988 21.1932 11.4928Z" fill="#242E63"/>
</svg>
